<mxfile host="app.diagrams.net" modified="2023-10-16T17:51:52.172Z" agent="Mozilla/5.0 (Windows NT 10.0; Win64; x64; rv:109.0) Gecko/20100101 Firefox/118.0" etag="EMSVHc3WsfVGME_VZ4fU" version="22.0.4" type="github">
  <diagram id="C5RBs43oDa-KdzZeNtuy" name="Page-1">
    <mxGraphModel dx="796" dy="436" grid="1" gridSize="10" guides="1" tooltips="1" connect="1" arrows="1" fold="1" page="1" pageScale="1" pageWidth="827" pageHeight="1169" math="0" shadow="0">
      <root>
        <mxCell id="WIyWlLk6GJQsqaUBKTNV-0" />
        <mxCell id="WIyWlLk6GJQsqaUBKTNV-1" parent="WIyWlLk6GJQsqaUBKTNV-0" />
        <mxCell id="_mOKNY7q0nTf-aVmupxA-1" style="edgeStyle=orthogonalEdgeStyle;rounded=0;orthogonalLoop=1;jettySize=auto;html=1;entryX=0.5;entryY=0;entryDx=0;entryDy=0;dashed=1;dashPattern=8 8;fillColor=#0050ef;strokeColor=#001DBC;" parent="WIyWlLk6GJQsqaUBKTNV-1" source="_mOKNY7q0nTf-aVmupxA-0" target="_mOKNY7q0nTf-aVmupxA-8" edge="1">
          <mxGeometry relative="1" as="geometry">
            <mxPoint x="420" y="160" as="targetPoint" />
          </mxGeometry>
        </mxCell>
        <mxCell id="_mOKNY7q0nTf-aVmupxA-0" value="start" style="ellipse;whiteSpace=wrap;html=1;dashed=1;dashPattern=8 8;fillColor=#0050ef;strokeColor=#001DBC;fontColor=#ffffff;" parent="WIyWlLk6GJQsqaUBKTNV-1" vertex="1">
          <mxGeometry x="360" y="30" width="120" height="70" as="geometry" />
        </mxCell>
        <mxCell id="_mOKNY7q0nTf-aVmupxA-3" style="edgeStyle=orthogonalEdgeStyle;rounded=0;orthogonalLoop=1;jettySize=auto;html=1;dashed=1;dashPattern=8 8;fillColor=#0050ef;strokeColor=#001DBC;" parent="WIyWlLk6GJQsqaUBKTNV-1" source="_mOKNY7q0nTf-aVmupxA-2" edge="1">
          <mxGeometry relative="1" as="geometry">
            <mxPoint x="260" y="1524" as="targetPoint" />
          </mxGeometry>
        </mxCell>
        <mxCell id="_mOKNY7q0nTf-aVmupxA-7" style="edgeStyle=orthogonalEdgeStyle;rounded=0;orthogonalLoop=1;jettySize=auto;html=1;dashed=1;dashPattern=8 8;fillColor=#0050ef;strokeColor=#001DBC;" parent="WIyWlLk6GJQsqaUBKTNV-1" source="_mOKNY7q0nTf-aVmupxA-2" edge="1">
          <mxGeometry relative="1" as="geometry">
            <mxPoint x="560" y="330" as="targetPoint" />
          </mxGeometry>
        </mxCell>
        <mxCell id="_mOKNY7q0nTf-aVmupxA-2" value="start the game" style="rhombus;whiteSpace=wrap;html=1;dashed=1;dashPattern=8 8;fillColor=#0050ef;strokeColor=#001DBC;fontColor=#ffffff;" parent="WIyWlLk6GJQsqaUBKTNV-1" vertex="1">
          <mxGeometry x="360" y="230" width="120" height="90" as="geometry" />
        </mxCell>
        <mxCell id="_mOKNY7q0nTf-aVmupxA-5" value="no" style="text;html=1;align=center;verticalAlign=middle;resizable=0;points=[];autosize=1;dashed=1;dashPattern=8 8;fillColor=#0050ef;strokeColor=#001DBC;fontColor=#ffffff;" parent="WIyWlLk6GJQsqaUBKTNV-1" vertex="1">
          <mxGeometry x="320" y="240" width="40" height="30" as="geometry" />
        </mxCell>
        <mxCell id="_mOKNY7q0nTf-aVmupxA-6" value="yes&lt;br&gt;" style="text;html=1;align=center;verticalAlign=middle;resizable=0;points=[];autosize=1;dashed=1;dashPattern=8 8;fillColor=#0050ef;strokeColor=#001DBC;fontColor=#ffffff;" parent="WIyWlLk6GJQsqaUBKTNV-1" vertex="1">
          <mxGeometry x="480" y="240" width="40" height="30" as="geometry" />
        </mxCell>
        <mxCell id="_mOKNY7q0nTf-aVmupxA-9" style="edgeStyle=orthogonalEdgeStyle;rounded=0;orthogonalLoop=1;jettySize=auto;html=1;entryX=0.5;entryY=0;entryDx=0;entryDy=0;dashed=1;dashPattern=8 8;fillColor=#0050ef;strokeColor=#001DBC;" parent="WIyWlLk6GJQsqaUBKTNV-1" source="_mOKNY7q0nTf-aVmupxA-8" target="_mOKNY7q0nTf-aVmupxA-2" edge="1">
          <mxGeometry relative="1" as="geometry" />
        </mxCell>
        <mxCell id="_mOKNY7q0nTf-aVmupxA-8" value="Show logo" style="rounded=0;whiteSpace=wrap;html=1;dashed=1;dashPattern=8 8;fillColor=#0050ef;strokeColor=#001DBC;fontColor=#ffffff;" parent="WIyWlLk6GJQsqaUBKTNV-1" vertex="1">
          <mxGeometry x="360" y="140" width="120" height="60" as="geometry" />
        </mxCell>
        <mxCell id="_mOKNY7q0nTf-aVmupxA-12" style="edgeStyle=orthogonalEdgeStyle;rounded=0;orthogonalLoop=1;jettySize=auto;html=1;dashed=1;dashPattern=8 8;fillColor=#0050ef;strokeColor=#001DBC;" parent="WIyWlLk6GJQsqaUBKTNV-1" source="_mOKNY7q0nTf-aVmupxA-11" edge="1">
          <mxGeometry relative="1" as="geometry">
            <mxPoint x="560" y="460" as="targetPoint" />
          </mxGeometry>
        </mxCell>
        <mxCell id="_mOKNY7q0nTf-aVmupxA-11" value="Deal the user cards" style="rounded=0;whiteSpace=wrap;html=1;dashed=1;dashPattern=8 8;fillColor=#0050ef;strokeColor=#001DBC;fontColor=#ffffff;" parent="WIyWlLk6GJQsqaUBKTNV-1" vertex="1">
          <mxGeometry x="500" y="330" width="120" height="60" as="geometry" />
        </mxCell>
        <mxCell id="_mOKNY7q0nTf-aVmupxA-15" value="" style="edgeStyle=orthogonalEdgeStyle;rounded=0;orthogonalLoop=1;jettySize=auto;html=1;dashed=1;dashPattern=8 8;fillColor=#0050ef;strokeColor=#001DBC;" parent="WIyWlLk6GJQsqaUBKTNV-1" source="_mOKNY7q0nTf-aVmupxA-13" target="_mOKNY7q0nTf-aVmupxA-14" edge="1">
          <mxGeometry relative="1" as="geometry" />
        </mxCell>
        <mxCell id="_mOKNY7q0nTf-aVmupxA-13" value="Deal dealer&amp;nbsp; first card" style="rounded=0;whiteSpace=wrap;html=1;dashed=1;dashPattern=8 8;fillColor=#0050ef;strokeColor=#001DBC;fontColor=#ffffff;" parent="WIyWlLk6GJQsqaUBKTNV-1" vertex="1">
          <mxGeometry x="500" y="460" width="120" height="60" as="geometry" />
        </mxCell>
        <mxCell id="_mOKNY7q0nTf-aVmupxA-16" style="edgeStyle=orthogonalEdgeStyle;rounded=0;orthogonalLoop=1;jettySize=auto;html=1;entryX=0.5;entryY=0;entryDx=0;entryDy=0;dashed=1;dashPattern=8 8;fillColor=#0050ef;strokeColor=#001DBC;" parent="WIyWlLk6GJQsqaUBKTNV-1" source="_mOKNY7q0nTf-aVmupxA-14" target="_mOKNY7q0nTf-aVmupxA-17" edge="1">
          <mxGeometry relative="1" as="geometry">
            <mxPoint x="560" y="750" as="targetPoint" />
          </mxGeometry>
        </mxCell>
        <mxCell id="_mOKNY7q0nTf-aVmupxA-14" value="Show user card and score" style="rounded=0;whiteSpace=wrap;html=1;dashed=1;dashPattern=8 8;fillColor=#0050ef;strokeColor=#001DBC;fontColor=#ffffff;" parent="WIyWlLk6GJQsqaUBKTNV-1" vertex="1">
          <mxGeometry x="500" y="600" width="120" height="60" as="geometry" />
        </mxCell>
        <mxCell id="_mOKNY7q0nTf-aVmupxA-19" value="" style="edgeStyle=orthogonalEdgeStyle;rounded=0;orthogonalLoop=1;jettySize=auto;html=1;dashed=1;dashPattern=8 8;fillColor=#0050ef;strokeColor=#001DBC;" parent="WIyWlLk6GJQsqaUBKTNV-1" source="_mOKNY7q0nTf-aVmupxA-17" target="_mOKNY7q0nTf-aVmupxA-18" edge="1">
          <mxGeometry relative="1" as="geometry" />
        </mxCell>
        <mxCell id="_mOKNY7q0nTf-aVmupxA-17" value="Sho the dealer first cards" style="rounded=0;whiteSpace=wrap;html=1;dashed=1;dashPattern=8 8;fillColor=#0050ef;strokeColor=#001DBC;fontColor=#ffffff;" parent="WIyWlLk6GJQsqaUBKTNV-1" vertex="1">
          <mxGeometry x="500" y="720" width="120" height="60" as="geometry" />
        </mxCell>
        <mxCell id="_mOKNY7q0nTf-aVmupxA-21" style="edgeStyle=orthogonalEdgeStyle;rounded=0;orthogonalLoop=1;jettySize=auto;html=1;dashed=1;dashPattern=8 8;fillColor=#0050ef;strokeColor=#001DBC;" parent="WIyWlLk6GJQsqaUBKTNV-1" source="_mOKNY7q0nTf-aVmupxA-18" edge="1">
          <mxGeometry relative="1" as="geometry">
            <mxPoint x="690" y="920" as="targetPoint" />
          </mxGeometry>
        </mxCell>
        <mxCell id="_mOKNY7q0nTf-aVmupxA-18" value="Hit or pass" style="rhombus;whiteSpace=wrap;html=1;dashed=1;dashPattern=8 8;fillColor=#0050ef;strokeColor=#001DBC;fontColor=#ffffff;" parent="WIyWlLk6GJQsqaUBKTNV-1" vertex="1">
          <mxGeometry x="520" y="830" width="80" height="80" as="geometry" />
        </mxCell>
        <mxCell id="_mOKNY7q0nTf-aVmupxA-25" value="" style="edgeStyle=orthogonalEdgeStyle;rounded=0;orthogonalLoop=1;jettySize=auto;html=1;dashed=1;dashPattern=8 8;fillColor=#0050ef;strokeColor=#001DBC;" parent="WIyWlLk6GJQsqaUBKTNV-1" source="_mOKNY7q0nTf-aVmupxA-22" target="_mOKNY7q0nTf-aVmupxA-24" edge="1">
          <mxGeometry relative="1" as="geometry" />
        </mxCell>
        <mxCell id="_mOKNY7q0nTf-aVmupxA-22" value="Deal the user another card" style="rounded=0;whiteSpace=wrap;html=1;dashed=1;dashPattern=8 8;fillColor=#0050ef;strokeColor=#001DBC;fontColor=#ffffff;" parent="WIyWlLk6GJQsqaUBKTNV-1" vertex="1">
          <mxGeometry x="630" y="920" width="120" height="60" as="geometry" />
        </mxCell>
        <mxCell id="_mOKNY7q0nTf-aVmupxA-23" value="yes&lt;br&gt;" style="text;html=1;align=center;verticalAlign=middle;resizable=0;points=[];autosize=1;dashed=1;dashPattern=8 8;fillColor=#0050ef;strokeColor=#001DBC;fontColor=#ffffff;" parent="WIyWlLk6GJQsqaUBKTNV-1" vertex="1">
          <mxGeometry x="600" y="838" width="40" height="30" as="geometry" />
        </mxCell>
        <mxCell id="_mOKNY7q0nTf-aVmupxA-27" value="" style="edgeStyle=orthogonalEdgeStyle;rounded=0;orthogonalLoop=1;jettySize=auto;html=1;entryX=0.5;entryY=0;entryDx=0;entryDy=0;dashed=1;dashPattern=8 8;fillColor=#0050ef;strokeColor=#001DBC;" parent="WIyWlLk6GJQsqaUBKTNV-1" source="_mOKNY7q0nTf-aVmupxA-24" target="_mOKNY7q0nTf-aVmupxA-30" edge="1">
          <mxGeometry relative="1" as="geometry">
            <mxPoint x="690" y="1170" as="targetPoint" />
          </mxGeometry>
        </mxCell>
        <mxCell id="_mOKNY7q0nTf-aVmupxA-24" value="and given score" style="rounded=0;whiteSpace=wrap;html=1;dashed=1;dashPattern=8 8;fillColor=#0050ef;strokeColor=#001DBC;fontColor=#ffffff;" parent="WIyWlLk6GJQsqaUBKTNV-1" vertex="1">
          <mxGeometry x="630" y="1030" width="120" height="60" as="geometry" />
        </mxCell>
        <mxCell id="_mOKNY7q0nTf-aVmupxA-31" style="edgeStyle=orthogonalEdgeStyle;rounded=0;orthogonalLoop=1;jettySize=auto;html=1;entryX=1;entryY=0.5;entryDx=0;entryDy=0;dashed=1;dashPattern=8 8;fillColor=#0050ef;strokeColor=#001DBC;" parent="WIyWlLk6GJQsqaUBKTNV-1" source="_mOKNY7q0nTf-aVmupxA-30" target="_mOKNY7q0nTf-aVmupxA-22" edge="1">
          <mxGeometry relative="1" as="geometry">
            <mxPoint x="810" y="1020" as="targetPoint" />
            <Array as="points">
              <mxPoint x="800" y="1180" />
              <mxPoint x="800" y="950" />
            </Array>
          </mxGeometry>
        </mxCell>
        <mxCell id="_mOKNY7q0nTf-aVmupxA-33" style="edgeStyle=orthogonalEdgeStyle;rounded=0;orthogonalLoop=1;jettySize=auto;html=1;dashed=1;dashPattern=8 8;fillColor=#0050ef;strokeColor=#001DBC;" parent="WIyWlLk6GJQsqaUBKTNV-1" source="_mOKNY7q0nTf-aVmupxA-30" edge="1">
          <mxGeometry relative="1" as="geometry">
            <mxPoint x="560" y="1240" as="targetPoint" />
          </mxGeometry>
        </mxCell>
        <mxCell id="_mOKNY7q0nTf-aVmupxA-30" value="hit or pass" style="rhombus;whiteSpace=wrap;html=1;dashed=1;dashPattern=8 8;fillColor=#0050ef;strokeColor=#001DBC;fontColor=#ffffff;" parent="WIyWlLk6GJQsqaUBKTNV-1" vertex="1">
          <mxGeometry x="650" y="1140" width="80" height="80" as="geometry" />
        </mxCell>
        <mxCell id="_mOKNY7q0nTf-aVmupxA-32" value="yes&lt;br&gt;" style="text;html=1;align=center;verticalAlign=middle;resizable=0;points=[];autosize=1;dashed=1;dashPattern=8 8;fillColor=#0050ef;strokeColor=#001DBC;fontColor=#ffffff;" parent="WIyWlLk6GJQsqaUBKTNV-1" vertex="1">
          <mxGeometry x="740" y="1190" width="40" height="30" as="geometry" />
        </mxCell>
        <mxCell id="_mOKNY7q0nTf-aVmupxA-34" value="no&lt;br&gt;" style="text;html=1;align=center;verticalAlign=middle;resizable=0;points=[];autosize=1;dashed=1;dashPattern=8 8;fillColor=#0050ef;strokeColor=#001DBC;fontColor=#ffffff;" parent="WIyWlLk6GJQsqaUBKTNV-1" vertex="1">
          <mxGeometry x="580" y="1148" width="40" height="30" as="geometry" />
        </mxCell>
        <mxCell id="_mOKNY7q0nTf-aVmupxA-39" style="edgeStyle=orthogonalEdgeStyle;rounded=0;orthogonalLoop=1;jettySize=auto;html=1;dashed=1;dashPattern=8 8;fillColor=#0050ef;strokeColor=#001DBC;" parent="WIyWlLk6GJQsqaUBKTNV-1" source="_mOKNY7q0nTf-aVmupxA-35" edge="1">
          <mxGeometry relative="1" as="geometry">
            <mxPoint x="560" y="1360" as="targetPoint" />
          </mxGeometry>
        </mxCell>
        <mxCell id="_mOKNY7q0nTf-aVmupxA-35" value="show dealer&lt;br&gt;&amp;nbsp;second card" style="rounded=0;whiteSpace=wrap;html=1;dashed=1;dashPattern=8 8;fillColor=#0050ef;strokeColor=#001DBC;fontColor=#ffffff;" parent="WIyWlLk6GJQsqaUBKTNV-1" vertex="1">
          <mxGeometry x="500" y="1240" width="120" height="60" as="geometry" />
        </mxCell>
        <mxCell id="_mOKNY7q0nTf-aVmupxA-36" value="" style="endArrow=none;html=1;rounded=0;dashed=1;dashPattern=8 8;fillColor=#0050ef;strokeColor=#001DBC;" parent="WIyWlLk6GJQsqaUBKTNV-1" edge="1">
          <mxGeometry width="50" height="50" relative="1" as="geometry">
            <mxPoint x="410" y="870" as="sourcePoint" />
            <mxPoint x="520" y="870" as="targetPoint" />
          </mxGeometry>
        </mxCell>
        <mxCell id="_mOKNY7q0nTf-aVmupxA-37" value="" style="endArrow=none;html=1;rounded=0;dashed=1;dashPattern=8 8;fillColor=#0050ef;strokeColor=#001DBC;" parent="WIyWlLk6GJQsqaUBKTNV-1" edge="1">
          <mxGeometry width="50" height="50" relative="1" as="geometry">
            <mxPoint x="410" y="1180" as="sourcePoint" />
            <mxPoint x="410" y="870" as="targetPoint" />
          </mxGeometry>
        </mxCell>
        <mxCell id="_mOKNY7q0nTf-aVmupxA-38" value="" style="endArrow=none;html=1;rounded=0;dashed=1;dashPattern=8 8;fillColor=#0050ef;strokeColor=#001DBC;" parent="WIyWlLk6GJQsqaUBKTNV-1" edge="1">
          <mxGeometry width="50" height="50" relative="1" as="geometry">
            <mxPoint x="410" y="1180" as="sourcePoint" />
            <mxPoint x="560" y="1180" as="targetPoint" />
          </mxGeometry>
        </mxCell>
        <mxCell id="lMfN69lsVrD1om1X5rhs-3" style="edgeStyle=orthogonalEdgeStyle;rounded=0;orthogonalLoop=1;jettySize=auto;html=1;dashed=1;dashPattern=8 8;fillColor=#0050ef;strokeColor=#001DBC;" parent="WIyWlLk6GJQsqaUBKTNV-1" source="lMfN69lsVrD1om1X5rhs-2" edge="1">
          <mxGeometry relative="1" as="geometry">
            <mxPoint x="400" y="1480" as="targetPoint" />
          </mxGeometry>
        </mxCell>
        <mxCell id="lMfN69lsVrD1om1X5rhs-4" style="edgeStyle=orthogonalEdgeStyle;rounded=0;orthogonalLoop=1;jettySize=auto;html=1;dashed=1;dashPattern=8 8;fillColor=#0050ef;strokeColor=#001DBC;" parent="WIyWlLk6GJQsqaUBKTNV-1" source="lMfN69lsVrD1om1X5rhs-2" edge="1">
          <mxGeometry relative="1" as="geometry">
            <mxPoint x="720" y="1480" as="targetPoint" />
          </mxGeometry>
        </mxCell>
        <mxCell id="lMfN69lsVrD1om1X5rhs-2" value="is dealer score under 17" style="rhombus;whiteSpace=wrap;html=1;dashed=1;dashPattern=8 8;fillColor=#0050ef;strokeColor=#001DBC;fontColor=#ffffff;" parent="WIyWlLk6GJQsqaUBKTNV-1" vertex="1">
          <mxGeometry x="520" y="1360" width="80" height="80" as="geometry" />
        </mxCell>
        <mxCell id="lMfN69lsVrD1om1X5rhs-7" style="edgeStyle=orthogonalEdgeStyle;rounded=0;orthogonalLoop=1;jettySize=auto;html=1;dashed=1;dashPattern=8 8;fillColor=#0050ef;strokeColor=#001DBC;" parent="WIyWlLk6GJQsqaUBKTNV-1" source="lMfN69lsVrD1om1X5rhs-5" target="lMfN69lsVrD1om1X5rhs-8" edge="1">
          <mxGeometry relative="1" as="geometry">
            <mxPoint x="720" y="1600" as="targetPoint" />
          </mxGeometry>
        </mxCell>
        <mxCell id="lMfN69lsVrD1om1X5rhs-5" value="Give dealer another card" style="rounded=0;whiteSpace=wrap;html=1;dashed=1;dashPattern=8 8;fillColor=#0050ef;strokeColor=#001DBC;fontColor=#ffffff;" parent="WIyWlLk6GJQsqaUBKTNV-1" vertex="1">
          <mxGeometry x="660" y="1480" width="110" height="60" as="geometry" />
        </mxCell>
        <mxCell id="lMfN69lsVrD1om1X5rhs-9" style="edgeStyle=orthogonalEdgeStyle;rounded=0;orthogonalLoop=1;jettySize=auto;html=1;entryX=1;entryY=0.5;entryDx=0;entryDy=0;dashed=1;dashPattern=8 8;fillColor=#0050ef;strokeColor=#001DBC;" parent="WIyWlLk6GJQsqaUBKTNV-1" source="lMfN69lsVrD1om1X5rhs-8" target="lMfN69lsVrD1om1X5rhs-5" edge="1">
          <mxGeometry relative="1" as="geometry">
            <mxPoint x="920" y="1520" as="targetPoint" />
            <Array as="points">
              <mxPoint x="840" y="1600" />
              <mxPoint x="840" y="1510" />
            </Array>
          </mxGeometry>
        </mxCell>
        <mxCell id="lMfN69lsVrD1om1X5rhs-12" style="edgeStyle=orthogonalEdgeStyle;rounded=0;orthogonalLoop=1;jettySize=auto;html=1;dashed=1;dashPattern=8 8;fillColor=#0050ef;strokeColor=#001DBC;" parent="WIyWlLk6GJQsqaUBKTNV-1" source="lMfN69lsVrD1om1X5rhs-8" edge="1">
          <mxGeometry relative="1" as="geometry">
            <mxPoint x="560" y="1680" as="targetPoint" />
          </mxGeometry>
        </mxCell>
        <mxCell id="lMfN69lsVrD1om1X5rhs-8" value="is it under 17&amp;nbsp;" style="rhombus;whiteSpace=wrap;html=1;dashed=1;dashPattern=8 8;fillColor=#0050ef;strokeColor=#001DBC;fontColor=#ffffff;" parent="WIyWlLk6GJQsqaUBKTNV-1" vertex="1">
          <mxGeometry x="675" y="1560" width="80" height="80" as="geometry" />
        </mxCell>
        <mxCell id="lMfN69lsVrD1om1X5rhs-10" value="yes&lt;br&gt;" style="text;html=1;align=center;verticalAlign=middle;resizable=0;points=[];autosize=1;dashed=1;dashPattern=8 8;fillColor=#0050ef;strokeColor=#001DBC;fontColor=#ffffff;" parent="WIyWlLk6GJQsqaUBKTNV-1" vertex="1">
          <mxGeometry x="770" y="1598" width="40" height="30" as="geometry" />
        </mxCell>
        <mxCell id="lMfN69lsVrD1om1X5rhs-11" value="no&lt;br&gt;" style="text;html=1;align=center;verticalAlign=middle;resizable=0;points=[];autosize=1;dashed=1;dashPattern=8 8;fillColor=#0050ef;strokeColor=#001DBC;fontColor=#ffffff;" parent="WIyWlLk6GJQsqaUBKTNV-1" vertex="1">
          <mxGeometry x="640" y="1558" width="40" height="30" as="geometry" />
        </mxCell>
        <mxCell id="lMfN69lsVrD1om1X5rhs-15" style="edgeStyle=orthogonalEdgeStyle;rounded=0;orthogonalLoop=1;jettySize=auto;html=1;entryX=0.5;entryY=0;entryDx=0;entryDy=0;dashed=1;dashPattern=8 8;fillColor=#0050ef;strokeColor=#001DBC;" parent="WIyWlLk6GJQsqaUBKTNV-1" source="lMfN69lsVrD1om1X5rhs-14" edge="1">
          <mxGeometry relative="1" as="geometry">
            <mxPoint x="730" y="1820" as="targetPoint" />
          </mxGeometry>
        </mxCell>
        <mxCell id="lMfN69lsVrD1om1X5rhs-28" style="edgeStyle=orthogonalEdgeStyle;rounded=0;orthogonalLoop=1;jettySize=auto;html=1;entryX=0.5;entryY=0;entryDx=0;entryDy=0;dashed=1;dashPattern=8 8;fillColor=#0050ef;strokeColor=#001DBC;" parent="WIyWlLk6GJQsqaUBKTNV-1" source="lMfN69lsVrD1om1X5rhs-14" target="lMfN69lsVrD1om1X5rhs-18" edge="1">
          <mxGeometry relative="1" as="geometry">
            <mxPoint x="320" y="1820" as="targetPoint" />
          </mxGeometry>
        </mxCell>
        <mxCell id="lMfN69lsVrD1om1X5rhs-14" value="is user score greater than 21?" style="rhombus;whiteSpace=wrap;html=1;dashed=1;dashPattern=8 8;fillColor=#0050ef;strokeColor=#001DBC;fontColor=#ffffff;" parent="WIyWlLk6GJQsqaUBKTNV-1" vertex="1">
          <mxGeometry x="475" y="1680" width="170" height="130" as="geometry" />
        </mxCell>
        <mxCell id="lMfN69lsVrD1om1X5rhs-19" style="edgeStyle=orthogonalEdgeStyle;rounded=0;orthogonalLoop=1;jettySize=auto;html=1;dashed=1;dashPattern=8 8;fillColor=#0050ef;strokeColor=#001DBC;" parent="WIyWlLk6GJQsqaUBKTNV-1" source="lMfN69lsVrD1om1X5rhs-18" edge="1">
          <mxGeometry relative="1" as="geometry">
            <mxPoint x="408" y="1960" as="targetPoint" />
          </mxGeometry>
        </mxCell>
        <mxCell id="lMfN69lsVrD1om1X5rhs-23" value="" style="edgeStyle=orthogonalEdgeStyle;rounded=0;orthogonalLoop=1;jettySize=auto;html=1;dashed=1;dashPattern=8 8;fillColor=#0050ef;strokeColor=#001DBC;" parent="WIyWlLk6GJQsqaUBKTNV-1" source="lMfN69lsVrD1om1X5rhs-18" target="lMfN69lsVrD1om1X5rhs-22" edge="1">
          <mxGeometry relative="1" as="geometry" />
        </mxCell>
        <mxCell id="lMfN69lsVrD1om1X5rhs-26" style="edgeStyle=orthogonalEdgeStyle;rounded=0;orthogonalLoop=1;jettySize=auto;html=1;dashed=1;dashPattern=8 8;fillColor=#0050ef;strokeColor=#001DBC;" parent="WIyWlLk6GJQsqaUBKTNV-1" source="lMfN69lsVrD1om1X5rhs-18" target="lMfN69lsVrD1om1X5rhs-27" edge="1">
          <mxGeometry relative="1" as="geometry">
            <mxPoint x="88" y="1960" as="targetPoint" />
          </mxGeometry>
        </mxCell>
        <mxCell id="lMfN69lsVrD1om1X5rhs-18" value="is dealer score greator than user?" style="rhombus;whiteSpace=wrap;html=1;dashed=1;dashPattern=8 8;fillColor=#0050ef;strokeColor=#001DBC;fontColor=#ffffff;" parent="WIyWlLk6GJQsqaUBKTNV-1" vertex="1">
          <mxGeometry x="163" y="1800" width="140" height="130" as="geometry" />
        </mxCell>
        <mxCell id="lMfN69lsVrD1om1X5rhs-20" value="yes" style="text;html=1;align=center;verticalAlign=middle;resizable=0;points=[];autosize=1;dashed=1;dashPattern=8 8;fillColor=#0050ef;strokeColor=#001DBC;fontColor=#ffffff;" parent="WIyWlLk6GJQsqaUBKTNV-1" vertex="1">
          <mxGeometry x="338" y="1848" width="40" height="30" as="geometry" />
        </mxCell>
        <mxCell id="lMfN69lsVrD1om1X5rhs-48" style="edgeStyle=orthogonalEdgeStyle;rounded=0;orthogonalLoop=1;jettySize=auto;html=1;dashed=1;dashPattern=8 8;fillColor=#0050ef;strokeColor=#001DBC;" parent="WIyWlLk6GJQsqaUBKTNV-1" source="lMfN69lsVrD1om1X5rhs-21" edge="1">
          <mxGeometry relative="1" as="geometry">
            <mxPoint x="480" y="2310" as="targetPoint" />
          </mxGeometry>
        </mxCell>
        <mxCell id="lMfN69lsVrD1om1X5rhs-21" value="user loose" style="rounded=0;whiteSpace=wrap;html=1;dashed=1;dashPattern=8 8;fillColor=#0050ef;strokeColor=#001DBC;fontColor=#ffffff;" parent="WIyWlLk6GJQsqaUBKTNV-1" vertex="1">
          <mxGeometry x="310" y="1980" width="120" height="60" as="geometry" />
        </mxCell>
        <mxCell id="lMfN69lsVrD1om1X5rhs-46" style="edgeStyle=orthogonalEdgeStyle;rounded=0;orthogonalLoop=1;jettySize=auto;html=1;entryX=0;entryY=0.5;entryDx=0;entryDy=0;dashed=1;dashPattern=8 8;fillColor=#0050ef;strokeColor=#001DBC;" parent="WIyWlLk6GJQsqaUBKTNV-1" source="lMfN69lsVrD1om1X5rhs-22" edge="1">
          <mxGeometry relative="1" as="geometry">
            <mxPoint x="420" y="2350" as="targetPoint" />
            <Array as="points">
              <mxPoint x="230" y="2350" />
            </Array>
          </mxGeometry>
        </mxCell>
        <mxCell id="lMfN69lsVrD1om1X5rhs-22" value="TIE" style="rounded=0;whiteSpace=wrap;html=1;dashed=1;dashPattern=8 8;fillColor=#0050ef;strokeColor=#001DBC;fontColor=#ffffff;" parent="WIyWlLk6GJQsqaUBKTNV-1" vertex="1">
          <mxGeometry x="173" y="2000" width="120" height="60" as="geometry" />
        </mxCell>
        <mxCell id="lMfN69lsVrD1om1X5rhs-24" value="YES&lt;br&gt;" style="text;html=1;align=center;verticalAlign=middle;resizable=0;points=[];autosize=1;dashed=1;dashPattern=8 8;fillColor=#0050ef;strokeColor=#001DBC;fontColor=#ffffff;" parent="WIyWlLk6GJQsqaUBKTNV-1" vertex="1">
          <mxGeometry x="178" y="1963" width="50" height="30" as="geometry" />
        </mxCell>
        <mxCell id="lMfN69lsVrD1om1X5rhs-25" value="NO" style="text;html=1;align=center;verticalAlign=middle;resizable=0;points=[];autosize=1;dashed=1;dashPattern=8 8;fillColor=#0050ef;strokeColor=#001DBC;fontColor=#ffffff;" parent="WIyWlLk6GJQsqaUBKTNV-1" vertex="1">
          <mxGeometry x="240" y="1963" width="40" height="30" as="geometry" />
        </mxCell>
        <mxCell id="lMfN69lsVrD1om1X5rhs-27" value="User win" style="rounded=0;whiteSpace=wrap;html=1;dashed=1;dashPattern=8 8;fillColor=#0050ef;strokeColor=#001DBC;fontColor=#ffffff;" parent="WIyWlLk6GJQsqaUBKTNV-1" vertex="1">
          <mxGeometry x="18" y="1963" width="120" height="60" as="geometry" />
        </mxCell>
        <mxCell id="lMfN69lsVrD1om1X5rhs-29" value="no&lt;br&gt;" style="text;html=1;align=center;verticalAlign=middle;resizable=0;points=[];autosize=1;dashed=1;dashPattern=8 8;fillColor=#0050ef;strokeColor=#001DBC;fontColor=#ffffff;" parent="WIyWlLk6GJQsqaUBKTNV-1" vertex="1">
          <mxGeometry x="390" y="1708" width="40" height="30" as="geometry" />
        </mxCell>
        <mxCell id="lMfN69lsVrD1om1X5rhs-30" value="yes&lt;br&gt;" style="text;html=1;align=center;verticalAlign=middle;resizable=0;points=[];autosize=1;dashed=1;dashPattern=8 8;fillColor=#0050ef;strokeColor=#001DBC;fontColor=#ffffff;" parent="WIyWlLk6GJQsqaUBKTNV-1" vertex="1">
          <mxGeometry x="670" y="1708" width="40" height="30" as="geometry" />
        </mxCell>
        <mxCell id="lMfN69lsVrD1om1X5rhs-32" value="no&lt;br&gt;" style="text;html=1;align=center;verticalAlign=middle;resizable=0;points=[];autosize=1;dashed=1;dashPattern=8 8;fillColor=#0050ef;strokeColor=#001DBC;fontColor=#ffffff;" parent="WIyWlLk6GJQsqaUBKTNV-1" vertex="1">
          <mxGeometry x="138" y="1838" width="40" height="30" as="geometry" />
        </mxCell>
        <mxCell id="lMfN69lsVrD1om1X5rhs-33" style="edgeStyle=orthogonalEdgeStyle;rounded=0;orthogonalLoop=1;jettySize=auto;html=1;dashed=1;dashPattern=8 8;fillColor=#0050ef;strokeColor=#001DBC;" parent="WIyWlLk6GJQsqaUBKTNV-1" source="lMfN69lsVrD1om1X5rhs-36" edge="1">
          <mxGeometry relative="1" as="geometry">
            <mxPoint x="880" y="1970" as="targetPoint" />
          </mxGeometry>
        </mxCell>
        <mxCell id="lMfN69lsVrD1om1X5rhs-34" value="" style="edgeStyle=orthogonalEdgeStyle;rounded=0;orthogonalLoop=1;jettySize=auto;html=1;dashed=1;dashPattern=8 8;fillColor=#0050ef;strokeColor=#001DBC;" parent="WIyWlLk6GJQsqaUBKTNV-1" source="lMfN69lsVrD1om1X5rhs-36" target="lMfN69lsVrD1om1X5rhs-39" edge="1">
          <mxGeometry relative="1" as="geometry" />
        </mxCell>
        <mxCell id="lMfN69lsVrD1om1X5rhs-35" style="edgeStyle=orthogonalEdgeStyle;rounded=0;orthogonalLoop=1;jettySize=auto;html=1;dashed=1;dashPattern=8 8;fillColor=#0050ef;strokeColor=#001DBC;" parent="WIyWlLk6GJQsqaUBKTNV-1" source="lMfN69lsVrD1om1X5rhs-36" target="lMfN69lsVrD1om1X5rhs-42" edge="1">
          <mxGeometry relative="1" as="geometry">
            <mxPoint x="560" y="1970" as="targetPoint" />
          </mxGeometry>
        </mxCell>
        <mxCell id="lMfN69lsVrD1om1X5rhs-36" value="is dealer score greator than user?" style="rhombus;whiteSpace=wrap;html=1;dashed=1;dashPattern=8 8;fillColor=#0050ef;strokeColor=#001DBC;fontColor=#ffffff;" parent="WIyWlLk6GJQsqaUBKTNV-1" vertex="1">
          <mxGeometry x="660" y="1820" width="140" height="130" as="geometry" />
        </mxCell>
        <mxCell id="lMfN69lsVrD1om1X5rhs-37" value="yes" style="text;html=1;align=center;verticalAlign=middle;resizable=0;points=[];autosize=1;dashed=1;dashPattern=8 8;fillColor=#0050ef;strokeColor=#001DBC;fontColor=#ffffff;" parent="WIyWlLk6GJQsqaUBKTNV-1" vertex="1">
          <mxGeometry x="810" y="1858" width="40" height="30" as="geometry" />
        </mxCell>
        <mxCell id="lMfN69lsVrD1om1X5rhs-38" value="user loose" style="rounded=0;whiteSpace=wrap;html=1;dashed=1;dashPattern=8 8;fillColor=#0050ef;strokeColor=#001DBC;fontColor=#ffffff;" parent="WIyWlLk6GJQsqaUBKTNV-1" vertex="1">
          <mxGeometry x="827" y="1970" width="120" height="60" as="geometry" />
        </mxCell>
        <mxCell id="lMfN69lsVrD1om1X5rhs-50" style="edgeStyle=orthogonalEdgeStyle;rounded=0;orthogonalLoop=1;jettySize=auto;html=1;entryX=1;entryY=0.5;entryDx=0;entryDy=0;dashed=1;dashPattern=8 8;fillColor=#0050ef;strokeColor=#001DBC;" parent="WIyWlLk6GJQsqaUBKTNV-1" source="lMfN69lsVrD1om1X5rhs-39" edge="1">
          <mxGeometry relative="1" as="geometry">
            <mxPoint x="540" y="2350" as="targetPoint" />
            <Array as="points">
              <mxPoint x="730" y="2350" />
            </Array>
          </mxGeometry>
        </mxCell>
        <mxCell id="lMfN69lsVrD1om1X5rhs-39" value="TIE" style="rounded=0;whiteSpace=wrap;html=1;dashed=1;dashPattern=8 8;fillColor=#0050ef;strokeColor=#001DBC;fontColor=#ffffff;" parent="WIyWlLk6GJQsqaUBKTNV-1" vertex="1">
          <mxGeometry x="670" y="2000" width="120" height="60" as="geometry" />
        </mxCell>
        <mxCell id="lMfN69lsVrD1om1X5rhs-40" value="YES&lt;br&gt;" style="text;html=1;align=center;verticalAlign=middle;resizable=0;points=[];autosize=1;dashed=1;dashPattern=8 8;fillColor=#0050ef;strokeColor=#001DBC;fontColor=#ffffff;" parent="WIyWlLk6GJQsqaUBKTNV-1" vertex="1">
          <mxGeometry x="680" y="1958" width="50" height="30" as="geometry" />
        </mxCell>
        <mxCell id="lMfN69lsVrD1om1X5rhs-41" value="NO" style="text;html=1;align=center;verticalAlign=middle;resizable=0;points=[];autosize=1;dashed=1;dashPattern=8 8;fillColor=#0050ef;strokeColor=#001DBC;fontColor=#ffffff;" parent="WIyWlLk6GJQsqaUBKTNV-1" vertex="1">
          <mxGeometry x="730" y="1958" width="40" height="30" as="geometry" />
        </mxCell>
        <mxCell id="lMfN69lsVrD1om1X5rhs-49" style="edgeStyle=orthogonalEdgeStyle;rounded=0;orthogonalLoop=1;jettySize=auto;html=1;entryX=0.5;entryY=0;entryDx=0;entryDy=0;exitX=0.5;exitY=1;exitDx=0;exitDy=0;dashed=1;dashPattern=8 8;fillColor=#0050ef;strokeColor=#001DBC;" parent="WIyWlLk6GJQsqaUBKTNV-1" source="lMfN69lsVrD1om1X5rhs-42" edge="1">
          <mxGeometry relative="1" as="geometry">
            <mxPoint x="600" y="2030" as="sourcePoint" />
            <mxPoint x="480" y="2310" as="targetPoint" />
          </mxGeometry>
        </mxCell>
        <mxCell id="lMfN69lsVrD1om1X5rhs-42" value="User looser" style="rounded=0;whiteSpace=wrap;html=1;dashed=1;dashPattern=8 8;fillColor=#0050ef;strokeColor=#001DBC;fontColor=#ffffff;" parent="WIyWlLk6GJQsqaUBKTNV-1" vertex="1">
          <mxGeometry x="500" y="1958" width="120" height="60" as="geometry" />
        </mxCell>
        <mxCell id="lMfN69lsVrD1om1X5rhs-43" value="no&lt;br&gt;" style="text;html=1;align=center;verticalAlign=middle;resizable=0;points=[];autosize=1;dashed=1;dashPattern=8 8;fillColor=#0050ef;strokeColor=#001DBC;fontColor=#ffffff;" parent="WIyWlLk6GJQsqaUBKTNV-1" vertex="1">
          <mxGeometry x="610" y="1848" width="40" height="30" as="geometry" />
        </mxCell>
        <mxCell id="lMfN69lsVrD1om1X5rhs-47" value="" style="endArrow=none;html=1;rounded=0;entryX=0.5;entryY=1;entryDx=0;entryDy=0;dashed=1;dashPattern=8 8;fillColor=#0050ef;strokeColor=#001DBC;" parent="WIyWlLk6GJQsqaUBKTNV-1" target="lMfN69lsVrD1om1X5rhs-27" edge="1">
          <mxGeometry width="50" height="50" relative="1" as="geometry">
            <mxPoint x="230" y="2350" as="sourcePoint" />
            <mxPoint x="110" y="2110" as="targetPoint" />
            <Array as="points">
              <mxPoint x="78" y="2350" />
            </Array>
          </mxGeometry>
        </mxCell>
        <mxCell id="lMfN69lsVrD1om1X5rhs-51" value="" style="endArrow=none;html=1;rounded=0;entryX=0.448;entryY=1.057;entryDx=0;entryDy=0;entryPerimeter=0;dashed=1;dashPattern=8 8;fillColor=#0050ef;strokeColor=#001DBC;" parent="WIyWlLk6GJQsqaUBKTNV-1" target="lMfN69lsVrD1om1X5rhs-38" edge="1">
          <mxGeometry width="50" height="50" relative="1" as="geometry">
            <mxPoint x="880" y="2350" as="sourcePoint" />
            <mxPoint x="900" y="2040" as="targetPoint" />
            <Array as="points">
              <mxPoint x="730" y="2350" />
              <mxPoint x="881" y="2350" />
            </Array>
          </mxGeometry>
        </mxCell>
        <mxCell id="lMfN69lsVrD1om1X5rhs-55" style="edgeStyle=orthogonalEdgeStyle;rounded=0;orthogonalLoop=1;jettySize=auto;html=1;dashed=1;dashPattern=8 8;fillColor=#0050ef;strokeColor=#001DBC;" parent="WIyWlLk6GJQsqaUBKTNV-1" source="lMfN69lsVrD1om1X5rhs-54" edge="1">
          <mxGeometry relative="1" as="geometry">
            <mxPoint x="480" y="2450" as="targetPoint" />
          </mxGeometry>
        </mxCell>
        <mxCell id="lMfN69lsVrD1om1X5rhs-54" value="end" style="rounded=0;whiteSpace=wrap;html=1;dashed=1;dashPattern=8 8;fillColor=#0050ef;strokeColor=#001DBC;fontColor=#ffffff;" parent="WIyWlLk6GJQsqaUBKTNV-1" vertex="1">
          <mxGeometry x="420" y="2310" width="120" height="60" as="geometry" />
        </mxCell>
        <mxCell id="lMfN69lsVrD1om1X5rhs-57" style="edgeStyle=orthogonalEdgeStyle;rounded=0;orthogonalLoop=1;jettySize=auto;html=1;entryX=1;entryY=0.5;entryDx=0;entryDy=0;dashed=1;dashPattern=8 8;fillColor=#0050ef;strokeColor=#001DBC;" parent="WIyWlLk6GJQsqaUBKTNV-1" source="lMfN69lsVrD1om1X5rhs-56" target="_mOKNY7q0nTf-aVmupxA-8" edge="1">
          <mxGeometry relative="1" as="geometry">
            <mxPoint x="1000" y="160" as="targetPoint" />
            <Array as="points">
              <mxPoint x="1001" y="2480" />
              <mxPoint x="1001" y="170" />
            </Array>
          </mxGeometry>
        </mxCell>
        <mxCell id="lMfN69lsVrD1om1X5rhs-60" style="edgeStyle=orthogonalEdgeStyle;rounded=0;orthogonalLoop=1;jettySize=auto;html=1;dashed=1;dashPattern=8 8;fillColor=#0050ef;strokeColor=#001DBC;" parent="WIyWlLk6GJQsqaUBKTNV-1" source="lMfN69lsVrD1om1X5rhs-56" edge="1">
          <mxGeometry relative="1" as="geometry">
            <mxPoint x="370" y="2680" as="targetPoint" />
          </mxGeometry>
        </mxCell>
        <mxCell id="lMfN69lsVrD1om1X5rhs-56" value="Play again?" style="rhombus;whiteSpace=wrap;html=1;dashed=1;dashPattern=8 8;fillColor=#0050ef;strokeColor=#001DBC;fontColor=#ffffff;" parent="WIyWlLk6GJQsqaUBKTNV-1" vertex="1">
          <mxGeometry x="440" y="2440" width="80" height="80" as="geometry" />
        </mxCell>
        <mxCell id="lMfN69lsVrD1om1X5rhs-59" value="yes&lt;br&gt;" style="text;html=1;align=center;verticalAlign=middle;resizable=0;points=[];autosize=1;dashed=1;dashPattern=8 8;fillColor=#0050ef;strokeColor=#001DBC;fontColor=#ffffff;" parent="WIyWlLk6GJQsqaUBKTNV-1" vertex="1">
          <mxGeometry x="550" y="2508" width="40" height="30" as="geometry" />
        </mxCell>
        <mxCell id="lMfN69lsVrD1om1X5rhs-61" value="END" style="ellipse;whiteSpace=wrap;html=1;dashed=1;dashPattern=8 8;fillColor=#0050ef;strokeColor=#001DBC;fontColor=#ffffff;" parent="WIyWlLk6GJQsqaUBKTNV-1" vertex="1">
          <mxGeometry x="310" y="2680" width="120" height="80" as="geometry" />
        </mxCell>
        <mxCell id="WbqOCnsUqSHbN_wo_NFj-0" value="&lt;div&gt;yes&lt;/div&gt;&lt;div&gt;&lt;br&gt;&lt;/div&gt;" style="text;html=1;align=center;verticalAlign=middle;resizable=0;points=[];autosize=1;fontSize=20;fontFamily=Architects Daughter;dashed=1;dashPattern=8 8;fillColor=#0050ef;strokeColor=#001DBC;fontColor=#ffffff;" parent="WIyWlLk6GJQsqaUBKTNV-1" vertex="1">
          <mxGeometry x="610" y="1370" width="60" height="60" as="geometry" />
        </mxCell>
      </root>
    </mxGraphModel>
  </diagram>
</mxfile>
